<?xml version="1.0" encoding="UTF-8" standalone="no"?><svg xmlns="http://www.w3.org/2000/svg" xmlns:xlink="http://www.w3.org/1999/xlink" clip-rule="evenodd" stroke-miterlimit="10" viewBox="0 0 1024 768"><desc>SVG generated by Keynote</desc><defs></defs><g transform="matrix(1.00, 0.00, -0.00, -1.00, 0.0, 768.0)"><path d="M 0.0 768.0 L 1024.0 768.0 L 1024.0 0.0 L 0.0 0.0 Z M 0.0 768.0 " fill="#FEFFFF"></path><text xml:space="preserve" font-family="Helvetica-Light,Helvetica" font-size="66.0" fill="#000000" transform="matrix(1.00, 0.00, -0.00, -1.00, 280.1, 626.0)">F</text><text xml:space="preserve" font-family="Helvetica-Light,Helvetica" font-size="66.0" fill="#000000" transform="matrix(1.00, 0.00, -0.00, -1.00, 316.8, 626.0)">r</text><text xml:space="preserve" font-family="Helvetica-Light,Helvetica" font-size="66.0" fill="#000000" transform="matrix(1.00, 0.00, -0.00, -1.00, 337.6, 626.0)">e</text><text xml:space="preserve" font-family="Helvetica-Light,Helvetica" font-size="66.0" fill="#000000" transform="matrix(1.00, 0.00, -0.00, -1.00, 374.3, 626.0)">e</text><text xml:space="preserve" font-family="Helvetica-Light,Helvetica" font-size="66.0" fill="#000000" transform="matrix(1.00, 0.00, -0.00, -1.00, 411.0, 626.0)">B</text><text xml:space="preserve" font-family="Helvetica-Light,Helvetica" font-size="66.0" fill="#000000" transform="matrix(1.00, 0.00, -0.00, -1.00, 455.0, 626.0)">S</text><text xml:space="preserve" font-family="Helvetica-Light,Helvetica" font-size="66.0" fill="#000000" transform="matrix(1.00, 0.00, -0.00, -1.00, 495.3, 626.0)">D</text><text xml:space="preserve" font-family="Helvetica-Light,Helvetica" font-size="66.0" fill="#000000" transform="matrix(1.00, 0.00, -0.00, -1.00, 543.0, 626.0)"> </text><text xml:space="preserve" font-family="Helvetica-Light,Helvetica" font-size="66.0" fill="#000000" transform="matrix(1.00, 0.00, -0.00, -1.00, 561.3, 626.0)">J</text><text xml:space="preserve" font-family="Helvetica-Light,Helvetica" font-size="66.0" fill="#000000" transform="matrix(1.00, 0.00, -0.00, -1.00, 594.3, 626.0)">a</text><text xml:space="preserve" font-family="Helvetica-Light,Helvetica" font-size="66.0" fill="#000000" transform="matrix(1.00, 0.00, -0.00, -1.00, 631.0, 626.0)">i</text><text xml:space="preserve" font-family="Helvetica-Light,Helvetica" font-size="66.0" fill="#000000" transform="matrix(1.00, 0.00, -0.00, -1.00, 645.6, 626.0)">l</text><text xml:space="preserve" font-family="Helvetica-Light,Helvetica" font-size="66.0" fill="#000000" transform="matrix(1.00, 0.00, -0.00, -1.00, 660.3, 626.0)">s</text><image xlink:href="../../AA9BA1E4-56F1-4DA4-96F4-C48A97A7CEDB/assets/90878ED3E716C6DDDF77F41ABBE6666D.jpeg" width="397.00" height="482.00" transform="matrix(1.00, 0.00, -0.00, -1.00, 288.0, 568.0)"></image></g></svg>