<?xml version="1.0" encoding="UTF-8" standalone="no"?><svg xmlns="http://www.w3.org/2000/svg" xmlns:xlink="http://www.w3.org/1999/xlink" clip-rule="evenodd" stroke-miterlimit="10" viewBox="0 0 1024 768"><desc>SVG generated by Keynote</desc><defs></defs><g transform="matrix(1.00, 0.00, -0.00, -1.00, 0.0, 768.0)"><path d="M 0.0 768.0 L 1024.0 768.0 L 1024.0 0.0 L 0.0 0.0 Z M 0.0 768.0 " fill="#FEFFFF"></path><text xml:space="preserve" font-family="Helvetica-Light,Helvetica" font-size="66.0" fill="#000000" transform="matrix(1.00, 0.00, -0.00, -1.00, 289.2, 623.2)">T</text><text xml:space="preserve" font-family="Helvetica-Light,Helvetica" font-size="66.0" fill="#000000" transform="matrix(1.00, 0.00, -0.00, -1.00, 320.3, 623.2)">y</text><text xml:space="preserve" font-family="Helvetica-Light,Helvetica" font-size="66.0" fill="#000000" transform="matrix(1.00, 0.00, -0.00, -1.00, 353.3, 623.2)">p</text><text xml:space="preserve" font-family="Helvetica-Light,Helvetica" font-size="66.0" fill="#000000" transform="matrix(1.00, 0.00, -0.00, -1.00, 393.7, 623.2)">e</text><text xml:space="preserve" font-family="Helvetica-Light,Helvetica" font-size="66.0" fill="#000000" transform="matrix(1.00, 0.00, -0.00, -1.00, 430.4, 623.2)">s</text><text xml:space="preserve" font-family="Helvetica-Light,Helvetica" font-size="66.0" fill="#000000" transform="matrix(1.00, 0.00, -0.00, -1.00, 463.4, 623.2)"> </text><text xml:space="preserve" font-family="Helvetica-Light,Helvetica" font-size="66.0" fill="#000000" transform="matrix(1.00, 0.00, -0.00, -1.00, 481.7, 623.2)">o</text><text xml:space="preserve" font-family="Helvetica-Light,Helvetica" font-size="66.0" fill="#000000" transform="matrix(1.00, 0.00, -0.00, -1.00, 518.4, 623.2)">f</text><text xml:space="preserve" font-family="Helvetica-Light,Helvetica" font-size="66.0" fill="#000000" transform="matrix(1.00, 0.00, -0.00, -1.00, 536.8, 623.2)"> </text><text xml:space="preserve" font-family="Helvetica-Light,Helvetica" font-size="66.0" fill="#000000" transform="matrix(1.00, 0.00, -0.00, -1.00, 555.1, 623.2)">R</text><text xml:space="preserve" font-family="Helvetica-Light,Helvetica" font-size="66.0" fill="#000000" transform="matrix(1.00, 0.00, -0.00, -1.00, 599.1, 623.2)">F</text><text xml:space="preserve" font-family="Helvetica-Light,Helvetica" font-size="66.0" fill="#000000" transform="matrix(1.00, 0.00, -0.00, -1.00, 635.8, 623.2)">I</text><text xml:space="preserve" font-family="Helvetica-Light,Helvetica" font-size="66.0" fill="#000000" transform="matrix(1.00, 0.00, -0.00, -1.00, 654.2, 623.2)">D</text><text xml:space="preserve" font-family="Helvetica-Light,Helvetica" font-size="66.0" fill="#000000" transform="matrix(1.00, 0.00, -0.00, -1.00, 701.8, 623.2)">s</text><text xml:space="preserve" font-family="Helvetica-Light,Helvetica" font-size="27.0" fill="#000000" transform="matrix(1.00, 0.00, -0.00, -1.00, 158.0, 520.7)">•</text><text xml:space="preserve" font-family="Helvetica-Light,Helvetica" font-size="36.0" fill="#000000" transform="matrix(1.00, 0.00, -0.00, -1.00, 193.0, 517.3)">A</text><text xml:space="preserve" font-family="Helvetica-Light,Helvetica" font-size="36.0" fill="#000000" transform="matrix(1.00, 0.00, -0.00, -1.00, 217.0, 517.3)">c</text><text xml:space="preserve" font-family="Helvetica-Light,Helvetica" font-size="36.0" fill="#000000" transform="matrix(1.00, 0.00, -0.00, -1.00, 237.0, 517.3)">t</text><text xml:space="preserve" font-family="Helvetica-Light,Helvetica" font-size="36.0" fill="#000000" transform="matrix(1.00, 0.00, -0.00, -1.00, 247.0, 517.3)">i</text><text xml:space="preserve" font-family="Helvetica-Light,Helvetica" font-size="36.0" fill="#000000" transform="matrix(1.00, 0.00, -0.00, -1.00, 255.0, 517.3)">v</text><text xml:space="preserve" font-family="Helvetica-Light,Helvetica" font-size="36.0" fill="#000000" transform="matrix(1.00, 0.00, -0.00, -1.00, 273.0, 517.3)">e</text><text xml:space="preserve" font-family="Helvetica-Light,Helvetica" font-size="36.0" fill="#000000" transform="matrix(1.00, 0.00, -0.00, -1.00, 293.0, 517.3)"> </text><text xml:space="preserve" font-family="Helvetica-Light,Helvetica" font-size="36.0" fill="#000000" transform="matrix(1.00, 0.00, -0.00, -1.00, 303.1, 517.3)">o</text><text xml:space="preserve" font-family="Helvetica-Light,Helvetica" font-size="36.0" fill="#000000" transform="matrix(1.00, 0.00, -0.00, -1.00, 323.1, 517.3)">r</text><text xml:space="preserve" font-family="Helvetica-Light,Helvetica" font-size="36.0" fill="#000000" transform="matrix(1.00, 0.00, -0.00, -1.00, 335.1, 517.3)"> </text><text xml:space="preserve" font-family="Helvetica-Light,Helvetica" font-size="36.0" fill="#000000" transform="matrix(1.00, 0.00, -0.00, -1.00, 345.1, 517.3)">S</text><text xml:space="preserve" font-family="Helvetica-Light,Helvetica" font-size="36.0" fill="#000000" transform="matrix(1.00, 0.00, -0.00, -1.00, 367.1, 517.3)">e</text><text xml:space="preserve" font-family="Helvetica-Light,Helvetica" font-size="36.0" fill="#000000" transform="matrix(1.00, 0.00, -0.00, -1.00, 387.1, 517.3)">m</text><text xml:space="preserve" font-family="Helvetica-Light,Helvetica" font-size="36.0" fill="#000000" transform="matrix(1.00, 0.00, -0.00, -1.00, 417.1, 517.3)">i</text><text xml:space="preserve" font-family="Helvetica-Light,Helvetica" font-size="36.0" fill="#000000" transform="matrix(1.00, 0.00, -0.00, -1.00, 425.1, 517.3)">-</text><text xml:space="preserve" font-family="Helvetica-Light,Helvetica" font-size="36.0" fill="#000000" transform="matrix(1.00, 0.00, -0.00, -1.00, 437.0, 517.3)">P</text><text xml:space="preserve" font-family="Helvetica-Light,Helvetica" font-size="36.0" fill="#000000" transform="matrix(1.00, 0.00, -0.00, -1.00, 459.0, 517.3)">a</text><text xml:space="preserve" font-family="Helvetica-Light,Helvetica" font-size="36.0" fill="#000000" transform="matrix(1.00, 0.00, -0.00, -1.00, 479.1, 517.3)">s</text><text xml:space="preserve" font-family="Helvetica-Light,Helvetica" font-size="36.0" fill="#000000" transform="matrix(1.00, 0.00, -0.00, -1.00, 497.1, 517.3)">s</text><text xml:space="preserve" font-family="Helvetica-Light,Helvetica" font-size="36.0" fill="#000000" transform="matrix(1.00, 0.00, -0.00, -1.00, 515.1, 517.3)">i</text><text xml:space="preserve" font-family="Helvetica-Light,Helvetica" font-size="36.0" fill="#000000" transform="matrix(1.00, 0.00, -0.00, -1.00, 523.0, 517.3)">v</text><text xml:space="preserve" font-family="Helvetica-Light,Helvetica" font-size="36.0" fill="#000000" transform="matrix(1.00, 0.00, -0.00, -1.00, 541.0, 517.3)">e</text><text xml:space="preserve" font-family="Helvetica-Light,Helvetica" font-size="36.0" fill="#000000" transform="matrix(1.00, 0.00, -0.00, -1.00, 561.1, 517.3)"> </text><text xml:space="preserve" font-family="Helvetica-Light,Helvetica" font-size="27.0" fill="#000000" transform="matrix(1.00, 0.00, -0.00, -1.00, 158.0, 435.7)">•</text><text xml:space="preserve" font-family="Helvetica-Light,Helvetica" font-size="36.0" fill="#000000" transform="matrix(1.00, 0.00, -0.00, -1.00, 193.0, 432.3)">P</text><text xml:space="preserve" font-family="Helvetica-Light,Helvetica" font-size="36.0" fill="#000000" transform="matrix(1.00, 0.00, -0.00, -1.00, 215.0, 432.3)">a</text><text xml:space="preserve" font-family="Helvetica-Light,Helvetica" font-size="36.0" fill="#000000" transform="matrix(1.00, 0.00, -0.00, -1.00, 235.0, 432.3)">s</text><text xml:space="preserve" font-family="Helvetica-Light,Helvetica" font-size="36.0" fill="#000000" transform="matrix(1.00, 0.00, -0.00, -1.00, 253.0, 432.3)">s</text><text xml:space="preserve" font-family="Helvetica-Light,Helvetica" font-size="36.0" fill="#000000" transform="matrix(1.00, 0.00, -0.00, -1.00, 271.0, 432.3)">i</text><text xml:space="preserve" font-family="Helvetica-Light,Helvetica" font-size="36.0" fill="#000000" transform="matrix(1.00, 0.00, -0.00, -1.00, 279.0, 432.3)">v</text><text xml:space="preserve" font-family="Helvetica-Light,Helvetica" font-size="36.0" fill="#000000" transform="matrix(1.00, 0.00, -0.00, -1.00, 297.0, 432.3)">e</text><image xlink:href="9A7BA5FDE752B805FA8FF156CDFF283D.png" width="706.00" height="471.00" transform="matrix(0.50, 0.00, -0.00, -0.50, 538.0, 350.0)"></image><image xlink:href="7354D12CCA3A1718F151CFD73ACC081E.jpeg" width="236.00" height="213.00" transform="matrix(0.89, 0.00, -0.00, -0.89, 154.0, 357.0)"></image><text xml:space="preserve" font-family="Helvetica-Light,Helvetica" font-size="18.0" fill="#000000" transform="matrix(1.00, 0.00, -0.00, -1.00, 506.5, 17.6)">3</text></g></svg>